<svg width="128" height="128" viewBox="0 0 128 128" fill="none" xmlns="http://www.w3.org/2000/svg">
<g clip-path="url(#clip0_28_2)">
<circle cx="64" cy="64" r="60" stroke="#808080" stroke-width="4"/>
<path d="M69.184 113.096C68.672 112.797 68.5653 112.371 68.864 111.816C77.7387 108.957 84.2667 104.179 88.448 97.48C86.3573 94.1947 84.672 90.376 83.392 86.024C82.112 81.6293 81.3013 76.5307 80.96 70.728H77.184C77.184 70.728 76.8213 70.7493 76.096 70.792C75.4133 70.792 74.6453 70.8773 73.792 71.048L73.28 68.296C74.3467 68.552 75.264 68.7013 76.032 68.744C76.8 68.7867 77.184 68.808 77.184 68.808H87.872V59.592C87.872 58.0987 87.7227 57.096 87.424 56.584C87.2107 56.3707 87.2107 56.136 87.424 55.88C87.5093 55.7093 87.7013 55.6667 88 55.752C88.4693 55.7947 89.0667 55.9013 89.792 56.072C90.56 56.2427 91.328 56.4133 92.096 56.584C92.864 56.7547 93.4827 56.904 93.952 57.032C94.3787 57.16 94.5493 57.416 94.464 57.8C94.464 58.2267 94.2507 58.44 93.824 58.44C93.3547 58.4827 92.8853 58.5893 92.416 58.76C91.9893 58.888 91.776 59.272 91.776 59.912V68.808H100.864C101.163 68.808 101.397 68.7013 101.568 68.488C101.781 68.2747 102.187 67.8267 102.784 67.144C103.381 66.4613 103.787 65.992 104 65.736C104.341 65.3947 104.725 65.3733 105.152 65.672C105.579 66.0133 106.197 66.5467 107.008 67.272C107.819 67.9973 108.416 68.5733 108.8 69C109.184 69.4267 109.312 69.832 109.184 70.216C109.099 70.5573 108.843 70.728 108.416 70.728H100.16C99.7333 76.2747 98.9227 81.2453 97.728 85.64C96.5333 90.0347 94.912 93.9173 92.864 97.288C95.2107 99.848 97.856 101.981 100.8 103.688C103.787 105.395 106.987 106.76 110.4 107.784C108.949 108.125 107.648 108.68 106.496 109.448C105.387 110.259 104.597 111.069 104.128 111.88C101.483 110.344 99.0293 108.659 96.768 106.824C94.5067 104.947 92.4587 102.856 90.624 100.552C85.76 106.739 78.6133 110.92 69.184 113.096ZM63.552 113.672C62.656 113.672 62.208 113.288 62.208 112.52C62.208 112.349 62.2293 111.688 62.272 110.536C62.3147 109.427 62.3573 108.061 62.4 106.44C62.4853 104.776 62.5493 103.091 62.592 101.384C62.6347 99.6347 62.656 98.0773 62.656 96.712V85.384C61.4613 85.5547 60.3093 85.7467 59.2 85.96C58.0907 86.1307 57.1733 86.28 56.448 86.408C55.8507 86.4933 55.4667 86.6427 55.296 86.856C55.168 87.0693 55.1467 87.432 55.232 87.944C55.3173 88.3707 55.168 88.648 54.784 88.776C54.3573 88.904 54.0587 88.7973 53.888 88.456C53.6747 88.072 53.3973 87.5387 53.056 86.856C52.7147 86.1733 52.3733 85.512 52.032 84.872C51.6907 84.1893 51.4347 83.656 51.264 83.272C51.0933 83.0587 51.1147 82.8453 51.328 82.632C51.4133 82.5467 51.7547 82.5467 52.352 82.632C52.5653 82.6747 52.8 82.7173 53.056 82.76C53.3547 82.8027 53.6747 82.824 54.016 82.824C54.6133 82.8667 55.2747 82.9093 56 82.952C56.768 82.952 57.5573 82.952 58.368 82.952C59.136 81.9707 60.032 80.7547 61.056 79.304C62.08 77.8533 63.104 76.3387 64.128 74.76C65.1947 73.1387 66.1333 71.56 66.944 70.024C67.7973 68.488 68.4373 67.1227 68.864 65.928C69.12 65.2027 69.2267 64.6907 69.184 64.392C69.1413 64.0507 69.2053 63.8373 69.376 63.752C69.5893 63.624 69.8027 63.6453 70.016 63.816C70.6133 64.1573 71.4453 64.6693 72.512 65.352C73.5787 66.0347 74.3893 66.5893 74.944 67.016C75.2853 67.2293 75.3707 67.528 75.2 67.912C74.9867 68.296 74.688 68.424 74.304 68.296C74.304 68.296 74.2827 68.296 74.24 68.296C73.8133 68.168 73.408 68.104 73.024 68.104C72.64 68.104 72.256 68.3813 71.872 68.936C70.8907 70.4293 69.7173 72.0507 68.352 73.8C66.9867 75.5067 65.6213 77.1707 64.256 78.792C62.8907 80.3707 61.6533 81.7573 60.544 82.952C62.336 82.9093 64.128 82.8453 65.92 82.76C67.7547 82.6747 69.2907 82.5893 70.528 82.504C70.1013 81.6933 69.632 80.904 69.12 80.136C68.6507 79.368 68.1173 78.664 67.52 78.024C67.52 77.384 67.8187 77.064 68.416 77.064C69.3973 77.6187 70.3787 78.3013 71.36 79.112C72.384 79.9227 73.28 80.776 74.048 81.672C74.816 82.568 75.328 83.4213 75.584 84.232C75.968 85.384 75.968 86.3653 75.584 87.176C75.2 87.9867 74.752 88.4773 74.24 88.648C73.8133 88.7333 73.408 88.6907 73.024 88.52C72.6827 88.3067 72.384 87.7307 72.128 86.792C72 86.3227 71.8507 85.832 71.68 85.32C71.5093 84.808 71.3173 84.3173 71.104 83.848C70.4213 83.976 69.6533 84.1253 68.8 84.296C67.9893 84.424 67.1147 84.5733 66.176 84.744V96.712C66.176 98.12 66.1973 99.6773 66.24 101.384C66.2827 103.048 66.304 104.669 66.304 106.248C66.3467 107.784 66.3893 109.085 66.432 110.152C66.4747 111.219 66.496 111.88 66.496 112.136C66.496 112.52 66.176 112.861 65.536 113.16C64.9387 113.501 64.2773 113.672 63.552 113.672ZM90.368 94.088C91.8613 91.016 93.0347 87.56 93.888 83.72C94.784 79.8373 95.4027 75.5067 95.744 70.728H82.944C83.2853 75.72 84.096 80.136 85.376 83.976C86.656 87.816 88.32 91.1867 90.368 94.088ZM60.416 75.976C59.9893 76.1893 59.6053 76.2107 59.264 76.04C58.9653 75.8267 58.6667 75.3787 58.368 74.696C57.5573 72.648 56.6187 70.856 55.552 69.32C54.528 67.784 53.2693 66.3547 51.776 65.032C51.6907 64.3493 51.968 64.008 52.608 64.008C53.5467 64.4773 54.464 65.0107 55.36 65.608C56.2987 66.1627 57.1733 66.7813 57.984 67.464C58.4533 66.6533 58.944 65.7147 59.456 64.648C60.0107 63.5387 60.5227 62.4293 60.992 61.32C61.504 60.168 61.888 59.1653 62.144 58.312C62.3573 57.6293 62.4213 57.0747 62.336 56.648C62.2933 56.1787 62.3573 55.9013 62.528 55.816C62.6987 55.688 62.912 55.688 63.168 55.816C63.7653 56.1147 64.5973 56.6053 65.664 57.288C66.7733 57.928 67.648 58.4613 68.288 58.888C68.5867 59.144 68.672 59.4427 68.544 59.784C68.416 60.168 68.1387 60.3173 67.712 60.232C67.2 60.0613 66.7947 60.0187 66.496 60.104C66.1973 60.1467 65.8773 60.4027 65.536 60.872C64.6827 62.152 63.616 63.5173 62.336 64.968C61.0987 66.4187 60.0533 67.592 59.2 68.488C59.6693 68.9573 60.096 69.448 60.48 69.96C60.864 70.472 61.1627 71.0053 61.376 71.56C61.8027 72.6267 61.888 73.5653 61.632 74.376C61.376 75.144 60.9707 75.6773 60.416 75.976ZM51.456 110.664C50.7733 110.835 50.3893 110.6 50.304 109.96C50.9013 108.765 51.52 107.229 52.16 105.352C52.8427 103.432 53.4613 101.405 54.016 99.272C54.5707 97.1387 54.9333 95.0907 55.104 93.128C55.1467 92.616 55.1467 92.2107 55.104 91.912C55.104 91.6133 55.0827 91.3573 55.04 91.144C54.9973 90.8453 55.0187 90.6533 55.104 90.568C55.232 90.44 55.4453 90.44 55.744 90.568C56.3413 90.7387 57.152 91.016 58.176 91.4C59.2427 91.7413 60.0533 92.0187 60.608 92.232C60.8213 92.2747 60.9493 92.3813 60.992 92.552C61.0347 92.7227 61.0347 92.8933 60.992 93.064C60.8213 93.448 60.544 93.6187 60.16 93.576C59.7333 93.4907 59.4133 93.5333 59.2 93.704C58.9867 93.8747 58.816 94.2373 58.688 94.792C58.176 96.712 57.5147 98.696 56.704 100.744C55.936 102.749 55.0827 104.627 54.144 106.376C53.248 108.125 52.352 109.555 51.456 110.664ZM74.624 105.672C74.1547 105.715 73.8133 105.565 73.6 105.224C73.3867 104.883 73.1947 104.285 73.024 103.432C72.6827 101.725 72.128 99.7627 71.36 97.544C70.592 95.2827 69.5253 93.1493 68.16 91.144C68.2027 90.888 68.3307 90.696 68.544 90.568C68.7573 90.3973 68.992 90.3547 69.248 90.44C70.1867 91.2507 71.1893 92.2533 72.256 93.448C73.3227 94.6 74.2827 95.88 75.136 97.288C75.9893 98.6533 76.544 100.061 76.8 101.512C77.0133 102.749 76.8853 103.731 76.416 104.456C75.9467 105.139 75.3493 105.544 74.624 105.672Z" fill="#808080"/>
<path d="M41.472 68.608C41.2587 67.4987 40.9813 66.624 40.64 65.984C40.2987 65.344 39.7867 64.8107 39.104 64.384C38.4213 63.9573 37.376 63.5093 35.968 63.04C35.712 62.4427 35.8613 62.016 36.416 61.76C37.2693 62.016 38.4 62.3147 39.808 62.656C41.216 62.9547 42.6667 63.104 44.16 63.104C45.824 63.104 47.1893 62.4 48.256 60.992C49.3653 59.5413 49.92 57.728 49.92 55.552C49.92 54.7413 49.8987 53.952 49.856 53.184C49.8133 52.416 49.7493 51.6907 49.664 51.008C46.7627 53.4827 43.52 55.7013 39.936 57.664C36.352 59.6267 32.768 61.312 29.184 62.72C25.6427 64.0853 22.4213 65.1733 19.52 65.984C19.3067 65.8133 19.1573 65.6 19.072 65.344C18.9867 65.088 19.0293 64.8747 19.2 64.704C21.4613 63.808 23.8933 62.7413 26.496 61.504C29.1413 60.224 31.808 58.7947 34.496 57.216C37.184 55.5947 39.744 53.8667 42.176 52.032C44.6507 50.1973 46.848 48.2773 48.768 46.272C48.5973 45.5467 48.384 44.864 48.128 44.224C47.872 43.5413 47.616 42.9013 47.36 42.304C44.8 44.352 41.9413 46.272 38.784 48.064C35.6693 49.8133 32.4693 51.392 29.184 52.8C25.8987 54.1653 22.6773 55.3387 19.52 56.32C18.9653 55.9787 18.8373 55.552 19.136 55.04C21.952 53.8027 24.9387 52.3307 28.096 50.624C31.296 48.8747 34.4107 46.9973 37.44 44.992C40.4693 42.944 43.1147 40.8533 45.376 38.72C44.48 37.3547 43.5627 36.1173 42.624 35.008C39.2533 37.0987 35.776 38.848 32.192 40.256C28.608 41.664 25.0667 42.8373 21.568 43.776C21.0133 43.4773 20.8853 43.072 21.184 42.56C25.1093 40.9387 28.928 39.1253 32.64 37.12C36.352 35.1147 39.7867 32.8107 42.944 30.208H32.32C32.32 30.208 31.9573 30.2293 31.232 30.272C30.5493 30.272 29.76 30.3787 28.864 30.592L28.352 27.776C29.4187 28.032 30.336 28.1813 31.104 28.224C31.872 28.2667 32.256 28.288 32.256 28.288H58.24C58.5387 28.288 58.7733 28.2027 58.944 28.032C59.1573 27.776 59.5627 27.3067 60.16 26.624C60.7573 25.9413 61.1627 25.4933 61.376 25.28C61.7173 24.896 62.1013 24.8747 62.528 25.216C62.9547 25.5147 63.5733 26.048 64.384 26.816C65.1947 27.5413 65.792 28.1173 66.176 28.544C66.56 28.928 66.688 29.312 66.56 29.696C66.4747 30.0373 66.2187 30.208 65.792 30.208H52.416C52.8427 32.8107 53.4187 35.2213 54.144 37.44C54.912 39.616 55.7653 41.5787 56.704 43.328C57.8133 42.56 58.944 41.7067 60.096 40.768C61.2907 39.7867 62.4 38.784 63.424 37.76C64.448 36.6933 65.28 35.712 65.92 34.816C66.3893 34.1333 66.6453 33.6 66.688 33.216C66.7307 32.7893 66.88 32.5333 67.136 32.448C67.3067 32.32 67.52 32.3627 67.776 32.576C68.2453 32.9173 68.7787 33.3653 69.376 33.92C70.016 34.432 70.6347 34.9653 71.232 35.52C71.8293 36.032 72.2987 36.4587 72.64 36.8C72.9387 37.0987 72.9813 37.3973 72.768 37.696C72.4693 38.0373 72.1493 38.144 71.808 38.016C71.7653 38.016 71.7013 37.9947 71.616 37.952C71.1467 37.696 70.7627 37.568 70.464 37.568C70.1653 37.568 69.696 37.8027 69.056 38.272C68.16 38.912 67.0293 39.6373 65.664 40.448C64.2987 41.2587 62.8907 42.048 61.44 42.816C60.032 43.584 58.7307 44.224 57.536 44.736C59.4133 47.7227 61.5253 50.176 63.872 52.096C66.2187 53.9733 68.5867 55.4667 70.976 56.576C73.3653 57.6427 75.5413 58.4747 77.504 59.072C76.096 59.5413 74.8587 60.1813 73.792 60.992C72.7253 61.8027 71.9147 62.592 71.36 63.36C69.9093 62.6347 68.16 61.44 66.112 59.776C64.064 58.112 61.9733 55.9573 59.84 53.312C57.7493 50.624 55.8507 47.3813 54.144 43.584C52.48 39.744 51.2853 35.2853 50.56 30.208H49.344C48.4907 30.9333 47.616 31.6373 46.72 32.32C45.824 32.96 44.928 33.5787 44.032 34.176C45.6107 35.8827 47.1253 37.9093 48.576 40.256C50.0693 42.56 51.2853 45.0347 52.224 47.68C53.1627 50.3253 53.632 52.992 53.632 55.68C53.632 58.7947 53.0773 61.312 51.968 63.232C50.8587 65.1093 49.3867 66.4747 47.552 67.328C45.7173 68.1813 43.6907 68.608 41.472 68.608ZM22.144 31.872C21.1627 31.9573 20.416 31.7867 19.904 31.36C19.392 30.9333 19.1573 30.4 19.2 29.76C19.2853 29.0773 19.6693 28.5013 20.352 28.032C21.5467 27.2213 22.592 26.1547 23.488 24.832C24.4267 23.4667 25.1947 21.952 25.792 20.288C26.432 18.624 26.8587 16.96 27.072 15.296C27.5413 14.8267 27.9893 14.8267 28.416 15.296C28.4587 15.8507 28.48 16.4053 28.48 16.96C28.5227 17.472 28.5227 18.0267 28.48 18.624H45.824V14.592C45.824 13.056 45.6533 12.0533 45.312 11.584C45.184 11.3707 45.2053 11.136 45.376 10.88C45.4613 10.7093 45.6533 10.6667 45.952 10.752C46.4213 10.7947 47.0613 10.9013 47.872 11.072C48.6827 11.2427 49.4933 11.4133 50.304 11.584C51.1573 11.7547 51.84 11.9253 52.352 12.096C52.7787 12.1387 52.9493 12.3947 52.864 12.864C52.8213 13.2907 52.5867 13.504 52.16 13.504C51.7333 13.5467 51.2853 13.6533 50.816 13.824C50.3467 13.952 50.112 14.336 50.112 14.976V18.624H67.584C67.8827 18.624 68.1387 18.5387 68.352 18.368C68.5653 18.1547 68.9493 17.8133 69.504 17.344C70.1013 16.8747 70.528 16.5333 70.784 16.32C71.2107 15.936 71.6373 15.9573 72.064 16.384C72.4907 16.768 73.0027 17.28 73.6 17.92C74.1973 18.5173 74.7733 19.1147 75.328 19.712C75.9253 20.3093 76.3947 20.8 76.736 21.184C76.864 21.3547 76.928 21.568 76.928 21.824C76.9707 22.08 76.9067 22.2933 76.736 22.464C76.48 22.848 75.9893 22.9547 75.264 22.784C74.5813 22.656 74.048 22.6133 73.664 22.656C73.28 22.656 72.7467 22.8693 72.064 23.296C71.5093 23.5947 70.8053 24.0213 69.952 24.576C69.0987 25.1307 68.288 25.6427 67.52 26.112C66.7947 26.5813 66.2827 26.9227 65.984 27.136C65.3013 27.136 64.96 26.8373 64.96 26.24C65.1733 25.9413 65.472 25.408 65.856 24.64C66.24 23.872 66.624 23.104 67.008 22.336C67.4347 21.5253 67.7333 20.928 67.904 20.544H28.416C28.288 22.4213 27.9893 24.192 27.52 25.856C27.0507 27.52 26.368 28.9067 25.472 30.016C24.6187 31.0827 23.5093 31.7013 22.144 31.872Z" fill="#808080"/>
<line x1="106.414" y1="21.4142" x2="72.4142" y2="55.4142" stroke="#808080" stroke-width="4"/>
<line x1="55.4142" y1="72.4142" x2="21.4142" y2="106.414" stroke="#808080" stroke-width="4"/>
</g>
<defs>
<clipPath id="clip0_28_2">
<rect width="128" height="128" fill="white"/>
</clipPath>
</defs>
</svg>
